<?xml version="1.0" encoding="UTF-8"?><svg id="Logo" xmlns="http://www.w3.org/2000/svg" viewBox="0 0 436.03 100"><defs><style>.cls-1{fill:#fff;}</style></defs><g id="Logo-2"><g id="Wordmark"><path class="cls-1" d="m98.21,87.34V13.59h9.79l25.4,62.02,25.4-62.02h10v73.75h-9.79v-29.17c0-13.77.1-18.77.61-23.97l-21.52,53.14h-9.38l-21.42-52.94c.51,3.57.71,11.12.71,21.42v31.52h-9.79Z"/><path class="cls-1" d="m200.01,36.03c12.55,0,21.32,7.14,23.05,18.26h-9.59c-1.63-6.32-6.73-9.69-13.16-9.69-9.08,0-15.3,6.94-15.3,17.75s5.81,17.65,14.89,17.65c6.83,0,11.93-3.57,13.67-9.49h9.59c-1.94,10.81-11.22,18.05-23.26,18.05-14.69,0-24.38-10.4-24.38-26.11s9.89-26.42,24.48-26.42Z"/><path class="cls-1" d="m227.34,73.47c0-9.18,6.83-14.89,18.56-15.81l15.71-1.22v-1.43c0-8.36-5-11.32-11.73-11.32-8.06,0-12.65,3.57-12.65,9.59h-8.36c0-10.41,8.57-17.24,21.42-17.24s20.71,6.53,20.71,19.99v31.32h-8.16l-1.02-8.06c-2.55,5.71-9.38,9.28-17.44,9.28-10.71,0-17.04-6.02-17.04-15.1Zm34.38-7.65v-2.65l-12.75,1.02c-8.47.82-11.93,4.08-11.93,8.98,0,5.3,3.88,7.96,10.1,7.96,9.08,0,14.59-5.92,14.59-15.3Z"/><path class="cls-1" d="m278.95,87.34V12.27h9.59v75.08h-9.59Z"/><path class="cls-1" d="m298.33,87.34V12.27h9.59v75.08h-9.59Z"/><path class="cls-1" d="m315.88,19.3c0-3.57,2.86-6.32,6.32-6.32s6.32,2.75,6.32,6.32-2.86,6.32-6.32,6.32-6.32-2.86-6.32-6.32Zm1.63,18.16h9.59v49.88h-9.59v-49.88Z"/><path class="cls-1" d="m336.48,87.34v-49.88h8.67l1.02,7.65c3.16-5.71,9.49-9.08,16.52-9.08,13.16,0,19.18,8.06,19.18,20.81v30.5h-9.59v-28.36c0-10.1-4.69-14.18-12.04-14.18-8.98,0-14.18,6.43-14.18,16.12v26.42h-9.59Z"/><path class="cls-1" d="m390.64,87.34v-49.88h8.67l1.02,7.65c3.16-5.71,9.49-9.08,16.52-9.08,13.16,0,19.18,8.06,19.18,20.81v30.5h-9.59v-28.36c0-10.1-4.69-14.18-12.04-14.18-8.98,0-14.18,6.43-14.18,16.12v26.42h-9.59Z"/></g><g id="Mark"><polygon class="cls-1" points="80 92 80 100 0 100 0 92 8 87 72 87 80 92"/><polygon class="cls-1" points="80 0 80 8 72 13 72 24.06 64 28.68 64 13 44 13 44 40.22 36 44.84 36 13 16 13 16 56.39 8 61.01 8 13 0 8 0 0 80 0"/><polygon class="cls-1" points="16 63.32 16 79 8 79 8 67.94 16 63.32"/><polygon class="cls-1" points="30 55.24 30 79 22 79 22 59.86 30 55.24"/><polygon class="cls-1" points="58 39.07 58 79 50 79 50 43.69 58 39.07"/><polygon class="cls-1" points="44 47.16 44 79 36 79 36 51.78 44 47.16"/><polygon class="cls-1" points="72 30.99 72 79 64 79 64 35.61 72 30.99"/></g></g></svg>